<svg xmlns="http://www.w3.org/2000/svg" viewBox="0 0 92.3 92.3"><defs><style>.cls-1,.cls-3,.cls-4{fill:none;stroke:#5773de;stroke-linecap:round;stroke-miterlimit:10;}.cls-1{stroke-width:6px;}.cls-2{fill:#5773de;}.cls-3{stroke-width:3.71px;}.cls-4{stroke-width:1.66px;}</style></defs><title>Ativo 20</title><g id="Camada_2" data-name="Camada 2"><g id="Camada_1-2" data-name="Camada 1"><path class="cls-1" d="M59.84,7.77A40.83,40.83,0,0,1,85.47,35.48"/><polygon class="cls-2" points="77.52 34.49 86.88 46.15 92.3 32.21 77.52 34.49"/><path class="cls-1" d="M84.53,59.84A40.83,40.83,0,0,1,56.82,85.47"/><polygon class="cls-2" points="57.81 77.52 46.15 86.88 60.09 92.3 57.81 77.52"/><path class="cls-1" d="M32.46,84.53A40.83,40.83,0,0,1,6.83,56.82"/><polygon class="cls-2" points="14.78 57.81 5.42 46.15 0 60.09 14.78 57.81"/><path class="cls-1" d="M7.77,32.46A40.83,40.83,0,0,1,35.48,6.83"/><polygon class="cls-2" points="34.49 14.78 46.15 5.42 32.21 0 34.49 14.78"/><path class="cls-3" d="M68.9,35.36A25.22,25.22,0,0,1,68,58.67"/><polygon class="cls-2" points="64.95 54.76 63.95 63.95 72.41 60.23 64.95 54.76"/><path class="cls-3" d="M56.94,68.9a25.2,25.2,0,0,1-23.3-.9"/><polygon class="cls-2" points="37.54 64.95 28.35 63.95 32.07 72.41 37.54 64.95"/><path class="cls-3" d="M23.4,56.94a25.2,25.2,0,0,1,.9-23.3"/><polygon class="cls-2" points="27.35 37.54 28.35 28.35 19.89 32.07 27.35 37.54"/><path class="cls-3" d="M35.36,23.4a25.22,25.22,0,0,1,23.31.9"/><polygon class="cls-2" points="54.76 27.35 63.95 28.35 60.23 19.89 54.76 27.35"/><path class="cls-4" d="M56.76,49.93A11.29,11.29,0,0,1,49.1,57"/><polygon class="cls-2" points="49.37 54.81 46.15 57.41 50.01 58.9 49.37 54.81"/><path class="cls-4" d="M42.37,56.76a11.29,11.29,0,0,1-7.09-7.66"/><polygon class="cls-2" points="37.48 49.37 34.89 46.15 33.4 50.01 37.48 49.37"/><path class="cls-4" d="M35.54,42.37a11.29,11.29,0,0,1,7.66-7.09"/><polygon class="cls-2" points="42.93 37.48 46.15 34.89 42.3 33.4 42.93 37.48"/><path class="cls-4" d="M49.93,35.54A11.29,11.29,0,0,1,57,43.2"/><polygon class="cls-2" points="54.81 42.93 57.41 46.15 58.9 42.3 54.81 42.93"/><circle class="cls-2" cx="46.15" cy="46.15" r="14.93"/></g></g></svg>