<?xml version="1.0" encoding="UTF-8"?>
<svg enable-background="new 0 0 374 235.8" version="1.1" viewBox="0 0 374 235.8" xml:space="preserve" xmlns="http://www.w3.org/2000/svg">
<style type="text/css">
	.st0{fill-rule:evenodd;clip-rule:evenodd;fill:#F8F8FF;}
</style>
		<path class="st0" d="m327.1 53.4c-5 5.4-16.8 6.2-19.4 15.4s-12.3 50.9-24.2 70.6c-1.7 22.6-5.2 43.3-1.9 68.2 0.5 3.8 2.9 6.7 3.6 10.8 2.7 2.8 11.3 2.1 11 7.2-0.2 4-16 4.4-19.2 1.7-6.2-5.2-4.1-18.7-9.1-24.5 0.4 7.8-1 15.7 2.4 21.4 1.8 3 9.2 4.3 9.1 8.4-0.2 6.6-18.8 1.6-20.2-0.5-2.1-3.3-1.9-9.3-3.8-14.4-2.2-5.8-3.4-5.6-3.1-13 0.3-7.5-2.4-17.4-3.6-25.7-1.6-11-3-21.5-6-28.8-34-4.9-58.8-18.9-96.2-20.4-14.5 23.5-37.7 38.4-58.8 55.4-1.5 7 1 14.8 1.4 22.1 2.9 2 9.7 0.8 9.6 5.3-0.1 3.7-13.1 4.4-16.6 2.2-6.8-4.4-3.5-22-8.4-28.1-14.8 4.4-17 23.6-22.3 38.4 2.5 2.3 9.8 2.3 7.9 7-2.1 5.1-19.7 1.4-20.4-2.4-1.2-6.4 3.3-16.9 4.6-22.8 1.4-6.3 1.8-17.1 4.8-22.6 0.9-1.6 4.2-2.8 5.5-4.1 6-6.1 16.5-14.8 18.7-23.8 3.5-14.5 8.3-30.4 7.2-48.7-4.2 16.6-11.9 27.4-24.7 34.6-15.5 8.6-36.7 1.5-55 1.9 9.3-6.6 28.6-3.1 41-5.3 35.1-6.3 21.8-55.7 52.8-67.2 20.9-7.7 42-12 71.5-12 9.3 0 48.2-1.3 60.7-3.1s26.8-12 41-19.7 30-35 53.3-36.7c12-0.9 20.7 3.3 26.4 9.1 8.8 9 9.7 23 22.1 29.5 2.5 1.3 4.6 1 5 3.6 0.6 3.9-3.5 10.7-5.5 12.7-9.9 10-31.2 5-41.2-1.7z"/>
</svg>
