<svg xmlns="http://www.w3.org/2000/svg" viewBox="0 0 100 100"><defs><style>.cls-1{fill:#fff;}.cls-2{fill:#058;}</style></defs><title>Ativo 7</title><g id="Camada_2" data-name="Camada 2"><g id="Camada_1-2" data-name="Camada 1"><circle class="cls-1" cx="50" cy="50" r="50"/><path class="cls-2" d="M67.76,41.65c-2.06.85-4.3,3.87-6.46,2.69,1-2.67,3.69-4.9,5.17-7.46,1.19-3,4.61-5,4.77-8.27-2.11-4.46-5.22,1.29-7,3.09C61.8,34.32,60.09,38,57,39.64c.36-2.59,2.67-5.41,3.69-8.14.87-1.85,1.78-3.75,2.79-5.56,2.72-2.26-.78-6.87-3.38-3.59-1.24,2.7-3.4,5.08-4.56,7.79-2.12,2.14-2,5.25-4.29,7.22-3.15.07-.55-5.71-.87-7.89.38-2.69,2-6.37.26-8.66-4.14-.92-4.17,4.62-5.42,7.27-1.11,3.58-1.14,7.39-1.83,11.08-.76,2.35-1.28,5.47-3.77,6.75-2.89.56-4.37-2.17-6.28-3.57a8.6,8.6,0,0,0-8.54-1.25c-2,2.78,2.62,2.34,3.32,4.33,2.39,2.26,5.08,4.08,6.82,6.84a26.68,26.68,0,0,1,3.47,6.66c1.74,2.82,1.31,6.32,1.29,9.57-.46,3.45-1,6.89-1.59,10.36-.09.82-.17,1.65-.23,2.48a38.7,38.7,0,0,0,12.15,2,39.58,39.58,0,0,0,4.24-.23,73.63,73.63,0,0,0,.38-8A48.81,48.81,0,0,1,56.06,65c1.07-2.42,3.37-3.94,4.41-6.35,1.13-2.18,1.43-4.9,2.76-7.09C64.79,49.34,67,48,69,46.46c2.21-2.59,7.88-4,6.49-8.39C72.39,36.91,70.57,40.88,67.76,41.65Z"/></g></g></svg>