<svg xmlns="http://www.w3.org/2000/svg" viewBox="0 0 100 100"><defs><style>.cls-1{fill:#fff;}.cls-2{fill:#5773de;fill-rule:evenodd;}</style></defs><title>Ativo 12</title><g id="Camada_2" data-name="Camada 2"><g id="Camada_1-2" data-name="Camada 1"><circle class="cls-1" cx="50" cy="50" r="50"/><g id="layer1"><path id="path2244" class="cls-2" d="M48.61,15.64c-6.69,6.92,1.16,17.2-2.19,18,0,0-4.15-6.58-8.88-5.89,7.37,9.84,3.09,16,3.11,15.94-4.61-5.78-10.55-5.9-9.22-5,5.53,3.89,3.8,14.32,3.8,14.32S29.35,48,26.58,50.62c7.52,3.82,4.27,8.2,4.15,13.51C30.48,74.68,35.08,78.93,40.94,82c6.48,3.35,16.17,1.73,22.21-1.23,3.57-1.76,9.56-6.2,10.26-17.52,0,0,.23-6.59-2-9.24-.57,2.43-2.08,2.66-2.08,2.66-.92.11,1.27-5.45,1.27-7.85a8.55,8.55,0,0,0-3.92-7.63s.93,6.12-2.53,8.09c-.7-1.44,2-17.19-7.85-20.32,2.54,5.19,2,7.15,2,7.15s-.25,2.63-.34,2c-.76-5.11-5.31-10-5.31-10s-2.53-2.19-4-12.35Zm6.81,38.22c1.38,2,0,11.77,0,11.77,2.31-.69,5-5.22,5.65-5.89.76-.83.35,5.66-2.42,8.43a7.74,7.74,0,0,0,4.5-3.11s-1.1,10.81-13.85,14.2c-2.3,1.38-14.47-6.19-7.84-17.9,2.19,10.28,6,10.28,6,10.28s-2.88-9.24-.35-12c0,0,1.36,4.92,4,5.31,1.62-7.85,4.27-11.08,4.27-11.08Z"/></g></g></g></svg>