<svg xmlns="http://www.w3.org/2000/svg" viewBox="0 0 100 100"><defs><style>.cls-1{fill:#fff;}.cls-2{fill:#5773de;}</style></defs><title>Ativo 11</title><g id="Camada_2" data-name="Camada 2"><g id="Camada_1-2" data-name="Camada 1"><circle class="cls-1" cx="50" cy="50" r="50"/><path class="cls-2" d="M70.15,34.84c-1.81,2-2.42,4.87-4.29,7.07-1.49,1.22-3.6,6.76-4.85,4.67,1.1-3.42,1.23-7.11,1.86-10.68-.36-3.07,2.3-8.39-.9-10-4.31-.58-3.14,5.44-4.36,8.11-.7,3.2-1.74,6.21-2.56,9.39-2.33-.68-1.13-5.81-2.27-8.14-1-3.44-.87-7.16-1.6-10.67-.09-4.08-6.94-3.22-5.4,1,1,5.45.3,11.16,1.06,16.59-1.25-1.89-2.24-4.37-3.36-6.4s-1.69-4.44-2.67-6.66c-.27-2.68-3-4.17-5.55-3.73a20.81,20.81,0,0,0,.93,7.89c1,2.73,1.28,5.4,2.22,8.11a83.15,83.15,0,0,0,2.63,8c1.12,2,.61,4.23-.26,6.2-1.4,4-5.69,1.47-8.11.22-3.12-2.49-8.67-3.56-11.59-.24C21.34,59.14,27,59.4,29.27,62c2.9,2.13,6.44,3.5,8.79,6.49,2,2.51,5.89,3.78,6.33,7.15a47,47,0,0,1,.66,10.48c-.71,3.66-.09,7.48-.75,11.14,0,.8-.08,1.61-.13,2.41A51,51,0,0,0,50,100a49.81,49.81,0,0,0,15.28-2.39c-.26-1.56-.5-3.12-.78-4.68-.62-3.8-.71-7.76-1.55-11.55,0-3.47-2.28-7.09-.29-10.32.94-3,1.38-6.28,2.22-9.35.55-3.69.79-7.52,2.1-11a66.6,66.6,0,0,0,4.86-8.92C73.62,39.56,74.83,33.46,70.15,34.84Z"/></g></g></svg>