<svg xmlns="http://www.w3.org/2000/svg" xmlns:xlink="http://www.w3.org/1999/xlink" viewBox="0 0 165.44 165.44"><defs><style>.cls-1{fill:none;}.cls-2{fill:#fff;}.cls-3{clip-path:url(#clip-path);}.cls-4{fill:url(#Gradiente_sem_nome);}.cls-5{fill:url(#Gradiente_sem_nome_2);}</style><clipPath id="clip-path"><circle class="cls-1" cx="82.72" cy="82.72" r="70.91"/></clipPath><radialGradient id="Gradiente_sem_nome" cx="215.42" cy="544.58" r="70.92" gradientTransform="translate(-954.48 591.48) rotate(-90) scale(1.98 1.84)" gradientUnits="userSpaceOnUse"><stop offset="0" stop-color="#fd5"/><stop offset="0.1" stop-color="#fd5"/><stop offset="0.5" stop-color="#ff543e"/><stop offset="1" stop-color="#c837ab"/></radialGradient><radialGradient id="Gradiente_sem_nome_2" cx="171.16" cy="472.73" r="70.92" gradientTransform="matrix(0.17, 0.87, -3.58, 0.72, 1651.36, -465.95)" gradientUnits="userSpaceOnUse"><stop offset="0" stop-color="#3771c8"/><stop offset="0.13" stop-color="#3771c8"/><stop offset="1" stop-color="#60f" stop-opacity="0"/></radialGradient></defs><title>Ativo 3</title><g id="Camada_2" data-name="Camada 2"><g id="Camada_1-2" data-name="Camada 1"><circle class="cls-2" cx="82.72" cy="82.72" r="82.72"/><g id="Camada_2-2" data-name="Camada 2"><g id="Camada_1-2-2" data-name="Camada 1-2"><circle class="cls-2" cx="82.72" cy="82.72" r="70.94"/><g class="cls-3"><path class="cls-4" d="M82.79,11.87c-29.66,0-38.32,0-40,.11-6.08.51-9.82,1.46-14,3.51a28.53,28.53,0,0,0-8.15,6,30.6,30.6,0,0,0-8.22,17.25c-.48,3.27-.61,4-.64,20.93V82.7c0,29.59,0,38.24.17,39.92.5,5.91,1.42,9.63,3.39,13.7a29.89,29.89,0,0,0,19.36,15.82A50.42,50.42,0,0,0,45,153.51c1.76.07,19.64.13,37.58.13s35.83,0,37.54-.11a48.55,48.55,0,0,0,10.67-1.4,29.71,29.71,0,0,0,19.37-15.88,35.26,35.26,0,0,0,3.34-13.44c.1-1.23.14-20.73.14-40.17s0-38.9-.14-40.13a34.39,34.39,0,0,0-3.42-13.57A28,28,0,0,0,144,20.62a30.7,30.7,0,0,0-17.28-8.16c-3.27-.48-4-.63-20.92-.65Z"/><path class="cls-5" d="M82.79,11.87c-29.66,0-38.32,0-40,.11-6.08.51-9.82,1.46-14,3.51a28.53,28.53,0,0,0-8.15,6,30.6,30.6,0,0,0-8.22,17.25c-.48,3.27-.61,4-.64,20.93V82.7c0,29.59,0,38.24.17,39.92.5,5.91,1.42,9.63,3.39,13.7a29.89,29.89,0,0,0,19.36,15.82A50.42,50.42,0,0,0,45,153.51c1.76.07,19.64.13,37.58.13s35.83,0,37.54-.11a48.55,48.55,0,0,0,10.67-1.4,29.71,29.71,0,0,0,19.37-15.88,35.26,35.26,0,0,0,3.34-13.44c.1-1.23.14-20.73.14-40.17s0-38.9-.14-40.13a34.39,34.39,0,0,0-3.42-13.57A28,28,0,0,0,144,20.62a30.7,30.7,0,0,0-17.28-8.16c-3.27-.48-4-.63-20.92-.65Z"/></g><path class="cls-2" d="M82.71,34.78c-13,0-14.67,0-19.79.29A34.91,34.91,0,0,0,51.27,37.3a24.5,24.5,0,0,0-14,14A35.16,35.16,0,0,0,35,63c-.23,5.12-.29,6.76-.29,19.8s.06,14.66.29,19.78a35.67,35.67,0,0,0,2.23,11.65,24.58,24.58,0,0,0,14,14,35.67,35.67,0,0,0,11.65,2.23c5.12.23,6.76.29,19.79.29s14.67-.06,19.79-.29a35.78,35.78,0,0,0,11.66-2.23,24.61,24.61,0,0,0,14-14,35.67,35.67,0,0,0,2.23-11.65c.23-5.12.29-6.75.29-19.78s-.06-14.68-.29-19.8a35.77,35.77,0,0,0-2.21-11.67,23.66,23.66,0,0,0-5.54-8.5,23.42,23.42,0,0,0-8.5-5.53A35.22,35.22,0,0,0,102.48,35c-5.12-.24-6.7-.24-19.79-.24Zm-4.31,8.6h4.31c12.81,0,14.33,0,19.39.27A26.64,26.64,0,0,1,111,45.31a15.92,15.92,0,0,1,9.1,9.11,26.58,26.58,0,0,1,1.66,8.91c.23,5.06.28,6.58.28,19.39s0,14.33-.28,19.39a26.58,26.58,0,0,1-1.66,8.91,15.93,15.93,0,0,1-9.1,9.1,26.64,26.64,0,0,1-8.92,1.66c-5.06.23-6.58.28-19.39.28s-14.34,0-19.4-.28a26.33,26.33,0,0,1-8.91-1.65A15.85,15.85,0,0,1,45.29,111a26.58,26.58,0,0,1-1.66-8.91c-.23-5.06-.27-6.58-.27-19.4s0-14.33.27-19.39a26.58,26.58,0,0,1,1.66-8.91A15.85,15.85,0,0,1,54.4,45.3a26.58,26.58,0,0,1,8.91-1.66c4.43-.2,6.15-.26,15.09-.27Zm29.93,8a5.76,5.76,0,1,0,5.76,5.76h0a5.74,5.74,0,0,0-5.75-5.75Zm-25.62,6.7a24.65,24.65,0,1,0,24.64,24.7,24.65,24.65,0,0,0-24.64-24.7Zm0,8.65a16,16,0,1,1-16,16,16,16,0,0,1,16-16Z"/></g></g></g></g></svg>