<svg xmlns="http://www.w3.org/2000/svg" viewBox="0 0 56.94 66.97"><defs><style>.cls-1{fill:#5773de;}</style></defs><title>Ativo 18</title><g id="Camada_2" data-name="Camada 2"><g id="Camada_1-2" data-name="Camada 1"><path class="cls-1" d="M37.17,20.46C27.43,9.2,28.62,0,28.62,0S18.17,12.33,18.17,25.08C18.17,36,24.69,40,32.35,38.36,39.41,36.86,44,28.35,37.17,20.46ZM28.42,37.21c-.19,0-.47-.07-.82-.17a7.74,7.74,0,0,1-1.23-.46,7.34,7.34,0,0,1-1.49-.87,8.62,8.62,0,0,1-.78-.63l-.38-.36-.37-.41A10.71,10.71,0,0,1,22,32.4a10.24,10.24,0,0,1-.52-1.11l-.23-.57c-.07-.2-.13-.4-.2-.6a16.75,16.75,0,0,1-.56-2.45,19,19,0,0,1-.2-2.48,21,21,0,0,1,.09-2.4,20.73,20.73,0,0,1,.8-4.13,14.46,14.46,0,0,1,.56-1.59,9.38,9.38,0,0,1,.55-1.17,5.71,5.71,0,0,1,.44-.72l.17-.23s0,.1-.07.28-.11.45-.18.8-.12.76-.19,1.23-.12,1-.18,1.61-.1,1.23-.13,1.9-.05,1.38-.05,2.11,0,1.47.07,2.23.12,1.52.25,2.27a17.8,17.8,0,0,0,.45,2.22,15.9,15.9,0,0,0,.69,2,11.49,11.49,0,0,0,.93,1.78l.25.4c.1.12.19.25.28.37a7.5,7.5,0,0,0,.56.68,6.21,6.21,0,0,0,.58.57,5,5,0,0,0,.56.5,10.69,10.69,0,0,0,1,.73c.29.19.53.32.69.42l.25.16Z"/><path class="cls-1" d="M20.31,46.23c-5-5.79-4.39-10.51-4.39-10.51s-5.15,6.19-5.15,12.75c0,5.56,3.47,7.89,7.07,7S23.83,50.29,20.31,46.23ZM18,54.54a3.07,3.07,0,0,1-.57.13,4,4,0,0,1-2.13-.25A3.82,3.82,0,0,1,14,53.59a5.21,5.21,0,0,1-1-1.32,8.16,8.16,0,0,1-.64-1.62c-.07-.28-.13-.58-.19-.87s-.09-.59-.1-.89a12.91,12.91,0,0,1,0-1.76,14.28,14.28,0,0,1,.24-1.67,15.55,15.55,0,0,1,.38-1.53c.14-.47.3-.92.46-1.32a13.71,13.71,0,0,1,.9-1.89c.13-.22.24-.38.31-.49l.12-.17a1.94,1.94,0,0,1-.07.19c-.05.13-.11.32-.18.55s-.16.53-.26.86-.18.71-.29,1.12-.19.86-.28,1.33-.17,1-.24,1.49-.12,1-.15,1.59a12.67,12.67,0,0,0,0,1.63c0,.28.05.54.08.81s.09.53.15.79a8.74,8.74,0,0,0,.49,1.47,5.36,5.36,0,0,0,.74,1.21,4.12,4.12,0,0,0,1,.83,4.21,4.21,0,0,0,1.87.55,6.66,6.66,0,0,0,.78,0Z"/><path class="cls-1" d="M37.45,54.68C30.49,48,30.71,42,30.71,42s-5.74,8.37-5,16.59c.65,7,5.28,9.49,9.68,7.91S42.32,59.36,37.45,54.68ZM34.63,65.56a4.73,4.73,0,0,1-.63,0,6,6,0,0,1-1,0,5.49,5.49,0,0,1-2.67-1,6.74,6.74,0,0,1-1.24-1.26,7.39,7.39,0,0,1-.52-.77,9,9,0,0,1-.46-.81,8.44,8.44,0,0,1-.61-1.86,13.73,13.73,0,0,1-.23-1.89,15.91,15.91,0,0,1,0-1.83,21.27,21.27,0,0,1,.41-3.18,19.72,19.72,0,0,1,.57-2.18c.17-.52.3-.81.3-.81s-.18,1.23-.31,3.07c-.06.92-.12,2-.11,3.12,0,.57,0,1.16.07,1.75a14.89,14.89,0,0,0,.24,1.76A7.37,7.37,0,0,0,29,61.27c.12.23.26.55.39.78a7.45,7.45,0,0,0,.43.71,7,7,0,0,0,1,1.2,6,6,0,0,0,1.15.8,7.47,7.47,0,0,0,2.07.65l.62.1.22,0Z"/><path class="cls-1" d="M51.85,46.23c-5-5.79-4.39-10.51-4.39-10.51S42.3,41.91,42.3,48.47c0,5.56,3.48,7.89,7.07,7S55.36,50.29,51.85,46.23Zm-2.34,8.31a3.21,3.21,0,0,1-.58.13,4,4,0,0,1-2.13-.25,3.93,3.93,0,0,1-1.23-.83,5.21,5.21,0,0,1-1-1.32A8.81,8.81,0,0,1,44,50.65c-.07-.28-.12-.58-.18-.87s-.09-.59-.11-.89a11.47,11.47,0,0,1,0-1.76,12.45,12.45,0,0,1,.23-1.67,15.55,15.55,0,0,1,.38-1.53c.14-.47.3-.92.46-1.32a13.71,13.71,0,0,1,.9-1.89c.13-.22.24-.38.32-.49l.11-.17a1.94,1.94,0,0,1-.07.19c0,.13-.1.32-.18.55s-.16.53-.26.86-.18.71-.29,1.12-.19.86-.28,1.33-.17,1-.24,1.49-.11,1-.15,1.59a14.77,14.77,0,0,0,0,1.63c0,.28.06.54.08.81s.09.53.15.79a8.74,8.74,0,0,0,.49,1.47,5.77,5.77,0,0,0,.75,1.21,4.08,4.08,0,0,0,.95.83,4.24,4.24,0,0,0,1.87.55,6.66,6.66,0,0,0,.78,0Z"/><path class="cls-1" d="M54.22,32.09c3.19-1.88,4-6,.07-9.93-4.63-4.63-12.66-5.36-12.66-5.36S45.4,19.7,46,27.34C46.34,32.69,51,34,54.22,32.09Zm-.91-.43a6.7,6.7,0,0,0,.55-.56,4.26,4.26,0,0,0,.93-1.71,3.74,3.74,0,0,0,.09-1.26,5.6,5.6,0,0,0-.33-1.39,9.35,9.35,0,0,0-.69-1.38l-.45-.67c-.17-.2-.33-.42-.52-.62a11.45,11.45,0,0,0-1.15-1.16c-.4-.36-.81-.71-1.23-1s-.82-.61-1.22-.88-.78-.52-1.14-.74l-1-.58c-.3-.17-.56-.32-.78-.43L45.85,19l-.19-.09.2,0c.14,0,.33.06.57.13a13.64,13.64,0,0,1,2,.69c.4.18.82.38,1.26.61s.89.51,1.34.81a14.06,14.06,0,0,1,1.35,1,11.25,11.25,0,0,1,1.26,1.23c.2.22.37.47.56.7s.34.5.48.75a7.16,7.16,0,0,1,.69,1.59,5.47,5.47,0,0,1,.25,1.63,3.8,3.8,0,0,1-.29,1.46A3.88,3.88,0,0,1,54,31.24a4.82,4.82,0,0,1-.49.32Z"/><path class="cls-1" d="M13.33,23.54c-2.62-9.28.61-14.34.61-14.34S4.75,13.51,1.25,21c-3,6.35-.26,10.86,4.33,11.73S15.16,30,13.33,23.54Zm-7.94,8c-.13-.06-.33-.15-.57-.28A6.55,6.55,0,0,1,4,30.66a5.28,5.28,0,0,1-1-.9,5.37,5.37,0,0,1-.81-1.35,6.42,6.42,0,0,1-.44-1.71,7.14,7.14,0,0,1-.06-.93c0-.33,0-.59,0-.94a8.78,8.78,0,0,1,.41-1.91,13.68,13.68,0,0,1,.77-1.74,14.12,14.12,0,0,1,.93-1.57,20.24,20.24,0,0,1,2-2.54,19.38,19.38,0,0,1,1.6-1.59,7.49,7.49,0,0,1,.67-.55s-.78,1-1.83,2.49c-.51.76-1.1,1.66-1.67,2.64-.29.49-.56,1-.82,1.54a13.87,13.87,0,0,0-.69,1.64,7.2,7.2,0,0,0-.4,1.68c0,.26,0,.6,0,.87a7.66,7.66,0,0,0,0,.83,7.38,7.38,0,0,0,.27,1.54,5.38,5.38,0,0,0,.59,1.28,7.43,7.43,0,0,0,1.45,1.61l.48.4.18.14Z"/></g></g></svg>