<?xml version="1.0" encoding="UTF-8"?>
<svg enable-background="new 0 0 906.5 906.5" version="1.1" viewBox="0 0 906.5 906.5" xml:space="preserve" xmlns="http://www.w3.org/2000/svg">
<style type="text/css">
	.st0{fill-rule:evenodd;clip-rule:evenodd;fill:none;}
	.st1{opacity:0.03;}
	.st2{fill-rule:evenodd;clip-rule:evenodd;fill:#F8F8FF;}
</style>
<rect class="st0" width="906.5" height="906.5"/>
<g class="st1" transform="translate(269.81 -650.63)">
	<path class="st2" d="m121.7 942c-19.6 51.7-61.5 83.8-93.6 71.7-32.2-12.2-42.3-64-22.8-115.7 19.6-51.7 61.5-83.8 93.6-71.7 32.2 12.2 42.3 64 22.8 115.7z"/>
	<path class="st2" d="m340.5 1160.8c-51.7 19.6-83.8 61.5-71.7 93.6 12.2 32.1 63.9 42.3 115.7 22.7 51.7-19.6 83.8-61.5 71.7-93.6-12.2-32.1-64-42.3-115.7-22.7z"/>
	<path class="st2" d="m287.2 964.6c-30 46.5-77.7 69.1-106.5 50.4-28.8-18.6-27.9-71.4 2.1-117.9s77.7-69.1 106.5-50.4 27.9 71.4-2.1 117.9z"/>
	<path class="st2" d="m317.2 994.7c-46.5 30-69.1 77.7-50.4 106.5 18.6 28.9 71.4 27.9 117.9-2.1s69.1-77.7 50.4-106.5c-18.6-28.9-71.4-27.9-117.9 2.1z"/>
	<path class="st2" d="m129.7 1062.7c-15.8 4.2-75.8 10.5-105.6 3.2-29.9-7.3-69.4-13.7-103.6 28.1-34.1 41.9-11.4 97.1 15.7 121.3s80.2 67.9 109.9 107.2 77 79.3 123.6 53.1 46.9-72.2 42.3-103.1c-4.7-31 4.9-100 13.8-127.2 8.8-27.2-4.8-106.9-96.1-82.6z"/>
</g>
</svg>
