<svg xmlns="http://www.w3.org/2000/svg" viewBox="0 0 69.05 78.24"><defs><style>.cls-1{fill:none;}.cls-2{opacity:0.09;}.cls-3{fill:#f8f8ff;}</style></defs><title>Ativo 4</title><g id="Camada_2" data-name="Camada 2"><g id="Camada_1-2" data-name="Camada 1"><rect class="cls-1" width="69.05" height="78.24"/><g class="cls-2"><path class="cls-3" d="M51,22.79l-.26-.12c-3.66-1.21-7.42,1.39-9.39,4.41-1.93,2.66-2.67,7,.09,9.33a3.54,3.54,0,0,0,1.4.66c4.43.74,8.52-2.86,10-6.88C54,27.7,53.59,24.13,51,22.79ZM36.76,15.33c-2.1-1.06-4.87.21-6.28,2-2.84,3.61-3.71,9.52-.3,13a3.66,3.66,0,0,0,1.15.66c3,1,5.88-1.5,7.13-4.1,1.71-3.4,2.08-8.19-.84-11A3.71,3.71,0,0,0,36.76,15.33Zm17.15,23.8c-3.71-1.71-8.13.6-10.31,3.82-1.79,2.19-2.27,6.17.38,7.84,3.87,2,8.74-.74,10.77-4.27,1.52-2.24,1.69-5.86-.84-7.39ZM22,23a4.13,4.13,0,0,0-4.87.6c-3.6,3.5-3.8,10.29.13,13.54a4.11,4.11,0,0,0,5.44-.73,9.91,9.91,0,0,0,.8-12A4,4,0,0,0,22,23ZM34.06,39.26A12.37,12.37,0,0,0,24,38.82a25.28,25.28,0,0,0-9.42,6.77,4.57,4.57,0,0,0,.78,7.19c3,1.75,6.84,1,10,2.51,2.82,1,4.42,3.62,6.27,5.78,1.53,1.93,4.46,3.08,6.65,1.45,2-1.79,2.08-4.79,2.17-7.28-.28-4.27-.6-8.77-2.79-12.52A9,9,0,0,0,34.06,39.26Z"/></g></g></g></svg>