<svg xmlns="http://www.w3.org/2000/svg" viewBox="0 0 55.96 81.46"><defs><style>.cls-1{fill:#5773de;fill-rule:evenodd;}</style></defs><title>Ativo 16</title><g id="Camada_2" data-name="Camada 2"><g id="Camada_1-2" data-name="Camada 1"><g id="layer1"><path id="path2244" class="cls-1" d="M26.32,0c-8,8.28,1.38,20.55-2.62,21.52,0,0-5-7.86-10.61-7,8.81,11.76,3.7,19.12,3.72,19-5.51-6.9-12.6-7-11-5.93,6.61,4.65,4.55,17.11,4.55,17.11S3.31,38.62,0,41.8c9,4.56,5.1,9.79,5,16.14-.3,12.6,5.2,17.68,12.19,21.29,7.74,4,19.33,2.07,26.53-1.47C48,75.66,55.11,70.36,56,56.83c0,0,.27-7.87-2.34-11C52.92,48.69,51.13,49,51.13,49c-1.11.14,1.51-6.5,1.51-9.38,0-6.62-4.68-9.1-4.68-9.1s1.1,7.31-3,9.65c-.83-1.72,2.39-20.54-9.37-24.28,3,6.21,2.34,8.56,2.34,8.56s-.3,3.14-.42,2.34c-.9-6.1-6.34-12-6.34-12s-3-2.62-4.82-14.76Zm8.13,45.66c1.66,2.35,0,14.07,0,14.07,2.76-.83,6-6.24,6.75-7,.91-1,.42,6.77-2.89,10.08A9.21,9.21,0,0,0,43.68,59S42.38,72,27.15,76c-2.76,1.65-17.29-7.39-9.37-21.38C20.4,66.9,24.94,66.9,24.94,66.9s-3.44-11-.41-14.34c0,0,1.62,5.88,4.82,6.34,1.93-9.38,5.1-13.24,5.1-13.24Z"/></g></g></g></svg>