<svg xmlns="http://www.w3.org/2000/svg" viewBox="0 0 60.85 65.8"><defs><style>.cls-1{fill:none;}.cls-1,.cls-2{stroke:#5773de;stroke-linecap:round;stroke-linejoin:round;stroke-width:3px;}.cls-2{fill:#5773de;}</style></defs><title>Ativo 21</title><g id="Camada_2" data-name="Camada 2"><g id="Camada_1-2" data-name="Camada 1"><path class="cls-1" d="M23.38,49.5H37.09a3.25,3.25,0,0,0,3.27-3.27h0A3.25,3.25,0,0,0,37.09,43H14.85a4.75,4.75,0,0,0-3.38,1.39L6.15,49.44"/><path class="cls-1" d="M17.15,60l23.87-3a5.82,5.82,0,0,0,2.24-.85l14.56-9.91a3.25,3.25,0,0,0,1-4.47h0a3.24,3.24,0,0,0-4.47-1l-12.76,8a5.36,5.36,0,0,1-2.71.79H23.38"/><path class="cls-1" d="M1.5,47.2H3.43a2.28,2.28,0,0,1,2.06,1.21l7.43,12.21a2.42,2.42,0,0,1-2.05,3.68h0"/><line class="cls-1" x1="31.75" y1="42.86" x2="31.75" y2="14.04"/><path class="cls-2" d="M48,23.71S46,36.25,31.75,36.25C31.75,36.25,33.67,23.71,48,23.71Z"/><path class="cls-2" d="M48,1.5S46,14,31.75,14C31.75,14,33.67,1.5,48,1.5Z"/><path class="cls-2" d="M15.46,19.13s2,12.53,16.29,12.53C31.75,31.66,29.83,19.13,15.46,19.13Z"/><path class="cls-2" d="M15.46,1.5S17.46,14,31.75,14C31.75,14,29.83,1.5,15.46,1.5Z"/></g></g></svg>