<svg xmlns="http://www.w3.org/2000/svg" viewBox="0 0 70.41 83.98"><defs><style>.cls-1,.cls-2,.cls-3{fill:none;}.cls-1,.cls-2,.cls-3,.cls-4{stroke:#5773de;}.cls-1,.cls-2{stroke-miterlimit:10;}.cls-1{stroke-width:4px;}.cls-2,.cls-3,.cls-4{stroke-width:3px;}.cls-3,.cls-4{stroke-linejoin:round;}.cls-4{fill:#5773de;}</style></defs><title>Ativo 19</title><g id="Camada_2" data-name="Camada 2"><g id="Camada_1-2" data-name="Camada 1"><rect class="cls-1" x="22.6" y="56.76" width="25.22" height="25.22"/><rect class="cls-2" x="29.02" y="63.75" width="12.38" height="12.38"/><line class="cls-2" x1="41.4" y1="63.75" x2="29.02" y2="75.56"/><line class="cls-2" x1="29.3" y1="63.47" x2="41.11" y2="75.85"/><path class="cls-3" d="M35.21,56.76l33.7-25.22S64.1,23.17,52.06,28.9Z"/><path class="cls-3" d="M35.21,56.76,52.06,28.9s-8.48-7.11-16.85,0Z"/><path class="cls-4" d="M35.21,1.5s33.7.92,33.7,30c0,0-5.27-8.37-16.85-2.64,0,0-9.17-6.65-16.85,0Z"/><path class="cls-3" d="M35.21,56.76,1.5,31.54s4.82-8.37,16.85-2.64Z"/><path class="cls-3" d="M35.21,56.76,18.35,28.9s8.49-7.11,16.86,0Z"/><path class="cls-4" d="M35.21,1.5S1.5,2.42,1.5,31.54c0,0,5.27-8.37,16.85-2.64,0,0,9.18-6.65,16.86,0Z"/></g></g></svg>