<svg xmlns="http://www.w3.org/2000/svg" viewBox="0 0 35.53 35.53"><defs><style>.cls-1{fill:#fff;}.cls-2{fill:#1da1f2;}</style></defs><title>Ativo 1</title><g id="Camada_2" data-name="Camada 2"><g id="Camada_1-2" data-name="Camada 1"><circle class="cls-1" cx="17.76" cy="17.76" r="17.76"/><path class="cls-2" d="M27.74,11.61a8.36,8.36,0,0,1-2.34.64A4.11,4.11,0,0,0,27.19,10a8,8,0,0,1-2.59,1,4.07,4.07,0,0,0-6.94,3.72,11.55,11.55,0,0,1-8.4-4.26,4.08,4.08,0,0,0,1.26,5.44,4,4,0,0,1-1.84-.51A4.08,4.08,0,0,0,12,19.42a4.25,4.25,0,0,1-1.85.07,4.1,4.1,0,0,0,3.81,2.83,8.17,8.17,0,0,1-6,1.68A11.59,11.59,0,0,0,25.71,13.71,8.44,8.44,0,0,0,27.74,11.61Z"/></g></g></svg>